<svg width="1440" height="480" viewBox="0 0 1440 480" fill="none" xmlns="http://www.w3.org/2000/svg">
  <rect width="1440" height="480" fill="#050B1F"/>
  <defs>
    <radialGradient id="planetGlow" cx="0" cy="0" r="1" gradientUnits="userSpaceOnUse" gradientTransform="translate(720 200) scale(700 260)">
      <stop offset="0" stop-color="#FFB6A6" stop-opacity="0.5"/>
      <stop offset="1" stop-color="#050B1F" stop-opacity="0"/>
    </radialGradient>
    <linearGradient id="ringGradient" x1="0" y1="0" x2="1" y2="0">
      <stop stop-color="#A8C5FF" stop-opacity="0.05"/>
      <stop offset="1" stop-color="#4A6BFF" stop-opacity="0.35"/>
    </linearGradient>
  </defs>
  <rect width="1440" height="480" fill="url(#planetGlow)"/>
  <g opacity="0.25">
    <circle cx="320" cy="260" r="120" fill="#F98667"/>
    <circle cx="640" cy="220" r="130" fill="#D87C5F"/>
    <circle cx="920" cy="240" r="120" fill="#4C6EFF"/>
    <circle cx="1160" cy="230" r="110" fill="#3B4FE8"/>
  </g>
  <g opacity="0.35">
    <ellipse cx="640" cy="230" rx="200" ry="58" fill="url(#ringGradient)"/>
    <ellipse cx="320" cy="270" rx="180" ry="48" fill="url(#ringGradient)"/>
    <ellipse cx="920" cy="250" rx="190" ry="54" fill="url(#ringGradient)"/>
    <ellipse cx="1160" cy="240" rx="160" ry="45" fill="url(#ringGradient)"/>
  </g>
  <g opacity="0.8">
    <circle cx="320" cy="250" r="100" fill="url(#planetGlow)"/>
    <circle cx="640" cy="220" r="110" fill="url(#planetGlow)"/>
    <circle cx="920" cy="240" r="100" fill="url(#planetGlow)"/>
    <circle cx="1160" cy="230" r="94" fill="url(#planetGlow)"/>
  </g>
  <g fill="#FFFFFF" opacity="0.45">
    <circle cx="240" cy="120" r="2"/>
    <circle cx="420" cy="80" r="1.5"/>
    <circle cx="1000" cy="90" r="1.8"/>
    <circle cx="1180" cy="60" r="1.6"/>
    <circle cx="900" cy="130" r="1.4"/>
    <circle cx="680" cy="100" r="1.6"/>
    <circle cx="540" cy="160" r="1.6"/>
    <circle cx="780" cy="180" r="1.3"/>
  </g>
</svg>
